<?xml version="1.0" encoding="UTF-8"?><!DOCTYPE svg PUBLIC "-//W3C//DTD SVG 1.1//EN" "http://www.w3.org/Graphics/SVG/1.1/DTD/svg11.dtd"><svg id="adaptris-logo" xmlns="http://www.w3.org/2000/svg" xmlns:xlink="http://www.w3.org/1999/xlink" version="1.1" width="100" height="100" viewBox="0 0 100 100"><path fill="#182B51" d="m47.02926,0.67866c-0.21803,0.12035 -0.66514,0.14564 -1.91054,0.10756c-1.50035,-0.04593 -1.64367,-0.03256 -1.84891,0.17297c-0.1471,0.14681 -0.37792,0.22268 -0.67793,0.22268c-0.2503,0 -0.45525,0.05116 -0.45525,0.11367c0,0.06279 0.14564,0.11396 0.32385,0.11396c0.18634,0 0.41542,0.10262 0.54043,0.24216c0.26018,0.291 1.01254,0.78172 1.1983,0.78172c0.07297,0 0.37879,0.23053 0.67997,0.51223c0.30117,0.28141 0.61543,0.51194 0.69857,0.51194c0.18634,0 3.84084,3.6606 3.84084,3.84724c0,0.07384 0.1753,0.3285 0.38984,0.56572c0.43403,0.48054 1.20295,1.58872 1.20295,1.73379c0,0.05146 0.12413,0.24129 0.27588,0.42153c0.15175,0.18024 0.41019,0.58084 0.57415,0.89044c0.16425,0.3096 0.391,0.6695 0.5038,0.80003c0.11279,0.13053 0.23925,0.37385 0.28112,0.54043c0.04186,0.16687 0.12646,0.30321 0.1878,0.30321c0.06134,0 0.11163,0.09622 0.11163,0.21367c0,0.11745 0.07675,0.27734 0.17065,0.35525c0.0939,0.07791 0.17065,0.23925 0.17065,0.35873c0,0.11948 0.0721,0.24507 0.16018,0.27879c0.08808,0.03372 0.33141,0.4035 0.54043,0.82125c0.20931,0.41804 0.44449,0.82765 0.52269,0.91021c0.0782,0.08285 0.14216,0.21135 0.14216,0.28577c0,0.07442 0.12093,0.26571 0.26861,0.42502c0.14797,0.15931 0.35699,0.49159 0.46455,0.7384c0.10785,0.24681 0.24216,0.52531 0.29856,0.61921c0.0564,0.0939 0.17297,0.32647 0.25931,0.51659c0.08605,0.19012 0.2346,0.42385 0.32995,0.51921c0.09535,0.09564 0.30146,0.4538 0.45816,0.79596c0.15669,0.34245 0.36455,0.68869 0.46252,0.7698c0.09768,0.08111 0.28635,0.38664 0.41891,0.6788c0.13285,0.29216 0.28809,0.60816 0.34536,0.70206c0.05727,0.0939 0.17675,0.3317 0.26571,0.5288c0.08896,0.1971 0.23606,0.40176 0.32676,0.45496c0.0907,0.05349 0.25321,0.30176 0.36135,0.55235c0.10814,0.2503 0.24274,0.53171 0.29914,0.6256c0.0564,0.0939 0.17326,0.32443 0.25931,0.51194c0.08634,0.1878 0.26629,0.43897 0.40002,0.55816c0.13373,0.11919 0.24332,0.30495 0.24332,0.41281c0,0.10785 0.07675,0.2596 0.17065,0.33751c0.0939,0.07791 0.17065,0.23954 0.17065,0.35903c0,0.11948 0.07675,0.24652 0.17065,0.28257c0.0939,0.03605 0.17065,0.15844 0.17065,0.2721c0,0.11367 0.12646,0.35699 0.28112,0.54072c0.15466,0.18402 0.40815,0.58723 0.56368,0.89684c0.15524,0.30931 0.38722,0.65729 0.51543,0.77299c0.12791,0.11599 0.23257,0.29885 0.23257,0.4067c0,0.10785 0.07704,0.25989 0.17065,0.3378c0.0939,0.07791 0.17094,0.2314 0.17094,0.34129c0,0.10989 0.07675,0.26338 0.17065,0.34129c0.0939,0.07791 0.17065,0.23402 0.17065,0.34711c0,0.11279 0.11803,0.29856 0.26251,0.41252c0.29972,0.23693 0.6477,0.87939 0.6477,1.19568c0,0.11745 0.07675,0.24303 0.17065,0.27908c0.0939,0.03605 0.17065,0.1785 0.17065,0.31629c0,0.1471 0.14158,0.35583 0.34129,0.50351c0.1878,0.13867 0.34129,0.34682 0.34129,0.46252c0,0.1157 0.07704,0.27385 0.17065,0.35176c0.0939,0.07791 0.17094,0.23169 0.17094,0.34129c0,0.10989 0.07675,0.26367 0.17065,0.34158c0.0939,0.07791 0.17065,0.2628 0.17065,0.41106c0,0.14855 0.10407,0.33373 0.23169,0.41281c0.12762,0.07878 0.37792,0.45031 0.55613,0.8259c0.1782,0.3753 0.43228,0.78026 0.56456,0.89945c0.13227,0.11919 0.24042,0.30815 0.24042,0.41978c0,0.11192 0.04797,0.23286 0.10669,0.2692c0.05843,0.03605 0.23373,0.33373 0.38955,0.66078c0.15553,0.32734 0.38926,0.70817 0.51921,0.84654c0.12995,0.13809 0.23606,0.32385 0.23606,0.41252c0,0.08896 0.07704,0.2253 0.17094,0.30321c0.09361,0.07791 0.17065,0.23169 0.17065,0.34129c0,0.10989 0.07675,0.26367 0.17065,0.34158c0.0939,0.07791 0.17065,0.21251 0.17065,0.29943c0,0.08663 0.15349,0.31833 0.34129,0.51484c0.1878,0.19652 0.34129,0.44566 0.34129,0.5538c0,0.10843 0.07675,0.26047 0.17065,0.33838c0.0939,0.07791 0.17065,0.2189 0.17065,0.31309c0,0.09419 0.20495,0.47153 0.45525,0.83811c0.2503,0.36687 0.45496,0.71224 0.45496,0.76805c0,0.05553 0.07704,0.16483 0.17065,0.24274c0.0939,0.07791 0.17094,0.22966 0.17094,0.33751c0,0.10785 0.10175,0.28838 0.22646,0.40118c0.21193,0.19187 1.02504,1.76722 1.02504,1.98612c0,0.05465 0.15349,0.22879 0.34129,0.38664c0.1878,0.15785 0.34129,0.38664 0.34129,0.50816c0,0.12152 0.07675,0.2846 0.17065,0.36251c0.0939,0.07791 0.17065,0.23169 0.17065,0.34158c0,0.1096 0.07704,0.26338 0.17065,0.34129c0.0939,0.07791 0.17094,0.19972 0.17094,0.27094c0,0.07122 0.12849,0.26832 0.28577,0.4381c0.15756,0.16948 0.33664,0.42502 0.39798,0.56775c0.06163,0.14245 0.15553,0.33606 0.20844,0.42996c0.2567,0.45438 0.35932,0.69276 0.35932,0.83404c0,0.08518 0.09884,0.2439 0.21948,0.35321c0.12064,0.10931 0.30234,0.37327 0.4035,0.58665c0.10117,0.21338 0.23286,0.38781 0.29245,0.38781c0.0596,0 0.10843,0.12442 0.10843,0.27675c0,0.17762 0.12239,0.36368 0.34129,0.51979c0.1878,0.13373 0.34158,0.33402 0.34158,0.44537c0,0.25844 0.29565,0.85439 0.51426,1.03579c0.09245,0.07675 0.16832,0.22937 0.16832,0.33926c0,0.10989 0.08169,0.26745 0.18169,0.35059c0.1,0.08285 0.33315,0.46048 0.51833,0.83869c0.47792,0.97736 0.77939,1.47069 0.96195,1.57564c0.08721,0.05 0.15844,0.14535 0.15844,0.21222c0,0.27123 0.78753,1.76373 1.06603,2.02042c0.16483,0.15175 0.29943,0.39507 0.29943,0.54072c0,0.14535 0.04622,0.26454 0.10262,0.26454c0.0564,0 0.15495,0.14971 0.21861,0.33286c0.06396,0.18315 0.24827,0.41949 0.40932,0.52502c0.16134,0.10582 0.29332,0.28053 0.29332,0.38868c0,0.27559 0.67532,1.59773 0.98986,1.93815c0.1439,0.15582 0.26193,0.34158 0.26193,0.41281c0,0.07093 0.07675,0.19303 0.17065,0.27094c0.0939,0.07791 0.17065,0.26338 0.17065,0.41222c0,0.14884 0.04128,0.27036 0.09186,0.27036c0.05058,0 0.17995,0.20001 0.2878,0.44449c0.24972,0.56572 1.33842,0.79363 1.61954,0.33897c0.0343,-0.05523 0.43693,-0.10059 0.8948,-0.10059c0.60148,0 0.87213,-0.04739 0.97446,-0.17065c0.08518,-0.10291 0.33431,-0.17065 0.6259,-0.17065c0.29158,0 0.54043,-0.06803 0.6256,-0.17094c0.07791,-0.09361 0.30176,-0.17239 0.49769,-0.17443c0.19565,-0.00233 0.48374,-0.07733 0.64014,-0.16687c0.1564,-0.08925 0.39333,-0.16425 0.52647,-0.16658c0.13314,-0.00233 0.30699,-0.08198 0.38606,-0.17733c0.07936,-0.09535 0.16832,-0.14942 0.19768,-0.11977c0.02965,0.02965 0.33693,-0.0971 0.68258,-0.2817c0.34565,-0.1846 0.69189,-0.33548 0.76951,-0.33548c0.07733,0 0.20437,-0.07675 0.28228,-0.17065c0.07791,-0.0939 0.22385,-0.17065 0.32472,-0.17065c0.10059,0 0.40147,-0.2346 0.66863,-0.52153c0.26716,-0.28693 0.54304,-0.50234 0.6134,-0.47909c0.17268,0.05785 1.52651,-1.26575 1.62942,-1.59279c0.04506,-0.14361 0.28257,-0.47182 0.52793,-0.72968c0.24507,-0.25786 0.44566,-0.53083 0.44566,-0.607c0,-0.07587 0.07704,-0.20175 0.17065,-0.27966c0.0939,-0.07791 0.17094,-0.23169 0.17094,-0.34158c0,-0.1096 0.07675,-0.26338 0.17065,-0.34129c0.0939,-0.07791 0.17065,-0.26338 0.17065,-0.41222c0,-0.14855 0.03983,-0.27036 0.08867,-0.27036c0.04884,0 0.14942,-0.1407 0.22355,-0.3128c0.07413,-0.1721 0.17966,-0.38984 0.23489,-0.48374c0.28373,-0.48345 0.3631,-0.71253 0.36368,-1.05091c0.00058,-0.20408 0.07733,-0.51804 0.17065,-0.69712c0.09361,-0.17937 0.17181,-0.48665 0.17355,-0.68287c0.00203,-0.19623 0.07878,-0.45612 0.17094,-0.57764c0.25146,-0.33257 0.24885,-10.12073 -0.00291,-10.6036c-0.11309,-0.21629 -0.17152,-0.67037 -0.17443,-1.35005c-0.00291,-0.71863 -0.05407,-1.08987 -0.17152,-1.24481c-0.10233,-0.13518 -0.16687,-0.47676 -0.16687,-0.88172c0,-0.36368 -0.04826,-0.66107 -0.10698,-0.66107c-0.05872,0 -0.14216,-0.35932 -0.18547,-0.79887c-0.04332,-0.43955 -0.12326,-0.82648 -0.17762,-0.86021c-0.05436,-0.03343 -0.09884,-0.2785 -0.09884,-0.5445c0,-0.266 -0.07529,-0.58287 -0.16716,-0.70439c-0.09186,-0.12152 -0.16861,-0.35554 -0.17065,-0.51979c-0.00203,-0.16454 -0.07558,-0.35873 -0.16367,-0.4317c-0.08808,-0.07326 -0.18256,-0.37385 -0.21047,-0.66834c-0.05116,-0.54275 -0.20902,-1.0701 -0.49537,-1.65384c-0.08692,-0.17733 -0.15815,-0.41455 -0.15815,-0.52764c0,-0.11279 -0.07646,-0.35176 -0.16977,-0.53112c-0.09361,-0.17937 -0.17036,-0.41281 -0.17094,-0.51891c-0.00029,-0.1064 -0.12849,-0.43403 -0.28489,-0.72822c-0.15669,-0.2942 -0.28489,-0.5913 -0.28519,-0.6602c-0.00058,-0.0689 -0.06599,-0.25321 -0.14594,-0.40961c-0.07994,-0.1564 -0.21571,-0.50147 -0.30146,-0.7666c-0.08605,-0.26484 -0.25059,-0.56717 -0.366,-0.67183c-0.11541,-0.10436 -0.20989,-0.25059 -0.20989,-0.32501c0,-0.07442 -0.12442,-0.36077 -0.27675,-0.63665c-0.15204,-0.27588 -0.38228,-0.69508 -0.51194,-0.93172c-0.12937,-0.23635 -0.23547,-0.50089 -0.23547,-0.58781c0,-0.08663 -0.03837,-0.17472 -0.08518,-0.19565c-0.04709,-0.02064 -0.2221,-0.32065 -0.38926,-0.66601c-0.16687,-0.34565 -0.41019,-0.72474 -0.54043,-0.84247c-0.13024,-0.11803 -0.23664,-0.30263 -0.23664,-0.41048c0,-0.10785 -0.07675,-0.2596 -0.17065,-0.33751c-0.0939,-0.07791 -0.17065,-0.22879 -0.17065,-0.33548c0,-0.10669 -0.1282,-0.31397 -0.2846,-0.46106c-0.1564,-0.14681 -0.28431,-0.35118 -0.28431,-0.45351c0,-0.10262 -0.15378,-0.33373 -0.34129,-0.51368c-0.1878,-0.17966 -0.34158,-0.39362 -0.34158,-0.47531c0,-0.08169 -0.15349,-0.29507 -0.34129,-0.47473c-0.1878,-0.17937 -0.34129,-0.40612 -0.34129,-0.50409c0,-0.09797 -0.14506,-0.32327 -0.3224,-0.5006c-0.17733,-0.17733 -0.46601,-0.55235 -0.64159,-0.83375c-0.1753,-0.28112 -0.54217,-0.73375 -0.81515,-1.00585c-0.27298,-0.2721 -0.49653,-0.55583 -0.49653,-0.63026c0,-0.20379 -5.90633,-6.09994 -6.1104,-6.09994c-0.09739,0 -0.44071,-0.27472 -0.76311,-0.6102c-0.32269,-0.33577 -0.7102,-0.64973 -0.86166,-0.6977c-0.15117,-0.04797 -0.45961,-0.28548 -0.68549,-0.52764c-0.22588,-0.24216 -0.48577,-0.44013 -0.57764,-0.44013c-0.09186,0 -0.33519,-0.15349 -0.54072,-0.34129c-0.20553,-0.1878 -0.42007,-0.34129 -0.47676,-0.34129c-0.0564,0 -0.27763,-0.15378 -0.4913,-0.34129c-0.21396,-0.1878 -0.46223,-0.34158 -0.55176,-0.34158c-0.08954,0 -0.3099,-0.15349 -0.48984,-0.34129c-0.17966,-0.1878 -0.41339,-0.34129 -0.51921,-0.34129c-0.10582,0 -0.25611,-0.07675 -0.33402,-0.17065c-0.07791,-0.0939 -0.22995,-0.17065 -0.3378,-0.17065c-0.10756,0 -0.29216,-0.1064 -0.4099,-0.23635c-0.11745,-0.12995 -0.48287,-0.36368 -0.81166,-0.51921c-0.32879,-0.15553 -0.62764,-0.33083 -0.66398,-0.38955c-0.03605,-0.05843 -0.15873,-0.1064 -0.27268,-0.1064c-0.11367,0 -0.27065,-0.07704 -0.34856,-0.17094c-0.07791,-0.09361 -0.2314,-0.17065 -0.34129,-0.17065c-0.10989,0 -0.26338,-0.07675 -0.34129,-0.17065c-0.07791,-0.0939 -0.26338,-0.17065 -0.41222,-0.17065c-0.14884,0 -0.27065,-0.05116 -0.27065,-0.11367c0,-0.0625 -0.09593,-0.11396 -0.21338,-0.11396c-0.11774,0 -0.27763,-0.07675 -0.35554,-0.17065c-0.07791,-0.0939 -0.2314,-0.17065 -0.34129,-0.17065c-0.10989,0 -0.25931,-0.07181 -0.33199,-0.15931c-0.07268,-0.08779 -0.25815,-0.19129 -0.41222,-0.22995c-0.15378,-0.03837 -0.27966,-0.12035 -0.27966,-0.18169c0,-0.06134 -0.17297,-0.11163 -0.38432,-0.11163c-0.21135,0 -0.44798,-0.07675 -0.52589,-0.17065c-0.07791,-0.0939 -0.23169,-0.17065 -0.34158,-0.17065c-0.1096,0 -0.26338,-0.07675 -0.34129,-0.17065c-0.07791,-0.0939 -0.30815,-0.17065 -0.51194,-0.17065c-0.20379,0 -0.43403,-0.07704 -0.51194,-0.17065c-0.07791,-0.0939 -0.31455,-0.17094 -0.52589,-0.17094c-0.21135,0 -0.38432,-0.04884 -0.38432,-0.10843c0,-0.05989 -0.19216,-0.14332 -0.42676,-0.18547c-0.2346,-0.04244 -0.47792,-0.11686 -0.54043,-0.1657c-0.0625,-0.04884 -0.30641,-0.12471 -0.54188,-0.1689c-0.23518,-0.0439 -0.45583,-0.1253 -0.49013,-0.18082c-0.0343,-0.05553 -0.30902,-0.10088 -0.61049,-0.10088c-0.34856,0 -0.60002,-0.06221 -0.69014,-0.17065c-0.07791,-0.0939 -0.316,-0.17065 -0.52938,-0.17065c-0.23983,0 -0.41281,-0.06512 -0.45351,-0.17065c-0.04448,-0.11599 -0.22617,-0.17065 -0.56892,-0.17065c-0.27675,0 -0.68724,-0.07675 -0.91195,-0.17065c-0.22472,-0.0939 -0.62619,-0.17065 -0.89277,-0.17065c-0.26629,0 -0.67793,-0.08111 -0.91486,-0.17995c-0.29594,-0.12384 -0.69305,-0.1689 -1.27127,-0.14477c-0.61688,0.02558 -0.86602,-0.0064 -0.93637,-0.12006c-0.07181,-0.11657 -0.51572,-0.16541 -1.78001,-0.19623c-0.92649,-0.02238 -1.73582,-0.09215 -1.79861,-0.15495c-0.18634,-0.18663 -4.95309,-0.12791 -5.30252,0.06512m-13.36911,3.52252c-0.1878,0.08605 -0.62967,0.15873 -0.98172,0.16134c-0.42531,0.00349 -0.68782,0.0625 -0.78201,0.17588c-0.07791,0.0939 -0.29071,0.17065 -0.47298,0.17065c-0.18227,0 -0.45787,0.08285 -0.61223,0.18402c-0.15437,0.10117 -0.38286,0.15698 -0.50787,0.12442c-0.125,-0.03285 -0.25321,-0.01744 -0.28489,0.03372c-0.09419,0.15262 -1.0201,0.56804 -1.26575,0.56804c-0.12471,0 -0.37414,0.15378 -0.55409,0.34129c-0.17995,0.1878 -0.41368,0.34158 -0.5195,0.34158c-0.10582,0 -0.25611,0.07675 -0.33402,0.17065c-0.07791,0.0939 -0.2314,0.17065 -0.34129,0.17065c-0.10989,0 -0.26338,0.07675 -0.34129,0.17065c-0.07791,0.0939 -0.23925,0.17065 -0.35873,0.17065c-0.11948,0 -0.24681,0.07675 -0.28286,0.17065c-0.03605,0.0939 -0.17995,0.17065 -0.32007,0.17065c-0.14012,0 -0.34623,0.10117 -0.45787,0.22472c-0.11192,0.12355 -0.43984,0.33693 -0.72881,0.47444c-0.28896,0.13721 -0.71195,0.39449 -0.94015,0.57153c-0.22792,0.17733 -0.49333,0.3224 -0.58956,0.3224c-0.09622,0 -0.28431,0.15349 -0.41804,0.34129c-0.13373,0.18751 -0.3317,0.34129 -0.43984,0.34129c-0.10814,0 -0.39653,0.20466 -0.64101,0.45496c-0.24449,0.2503 -0.52589,0.45525 -0.62531,0.45525c-0.09942,0 -0.4067,0.23053 -0.68317,0.51194c-0.27646,0.2817 -0.582,0.51194 -0.6788,0.51194c-0.0971,0 -0.68811,0.51136 -1.31342,1.13638c-0.62502,0.62502 -1.21342,1.13783 -1.30732,1.13987c-0.24623,0.00552 -2.50329,2.31171 -2.50329,2.55794c0,0.11367 -0.51194,0.7009 -1.13783,1.3047c-0.6256,0.6038 -1.13783,1.17417 -1.13783,1.26749c0,0.09332 -0.23024,0.39565 -0.51194,0.67212c-0.2817,0.27646 -0.51194,0.57618 -0.51194,0.6663c0,0.08983 -0.23053,0.4099 -0.51194,0.71078c-0.2817,0.30117 -0.51223,0.62531 -0.51223,0.72038c0,0.09506 -0.12791,0.2567 -0.28431,0.35932c-0.1564,0.10262 -0.28606,0.27007 -0.2878,0.3724c-0.00174,0.10233 -0.15524,0.38722 -0.34129,0.63287c-0.18605,0.24594 -0.33809,0.49188 -0.33809,0.54682c0,0.05465 -0.15349,0.26309 -0.34071,0.4631c-0.18751,0.20001 -0.34129,0.41048 -0.34158,0.46775c-0.00087,0.19187 -0.38461,0.97678 -0.47734,0.97678c-0.05058,0 -0.09186,0.10582 -0.09186,0.23489c0,0.12937 -0.15378,0.36426 -0.34129,0.52211c-0.1878,0.15815 -0.34158,0.37879 -0.34158,0.49101c0,0.11192 -0.07675,0.26716 -0.17065,0.34507c-0.0939,0.07791 -0.17065,0.2346 -0.17065,0.34856c0,0.11367 -0.04593,0.23518 -0.10204,0.26978c-0.14594,0.09041 -0.58055,0.95004 -0.58055,1.14859c0,0.09215 -0.04128,0.16716 -0.09186,0.16716c-0.11745,0 -0.47705,0.80933 -0.47705,1.0733c0,0.11018 -0.08431,0.36164 -0.18751,0.55903c-0.44653,0.85497 -0.49508,0.97794 -0.49508,1.2515c0,0.15873 -0.04593,0.31716 -0.10204,0.35176c-0.16192,0.1 -0.58084,0.96021 -0.58084,1.19249c0,0.11599 -0.07646,0.35757 -0.16977,0.53694c-0.09361,0.17937 -0.17036,0.4381 -0.17094,0.57531c-0.00029,0.13692 -0.05175,0.28082 -0.11425,0.31949c-0.06279,0.03866 -0.11541,0.23373 -0.11745,0.43345c-0.00203,0.19972 -0.07878,0.46252 -0.17065,0.58374c-0.09186,0.12152 -0.16716,0.44333 -0.16716,0.71485c0,0.33402 -0.05523,0.51514 -0.17065,0.55932c-0.09797,0.0375 -0.17065,0.20728 -0.17065,0.39827c0,0.18315 -0.07675,0.51659 -0.17065,0.74131c-0.0939,0.22472 -0.17065,0.62706 -0.17065,0.89451c0,0.32705 -0.05582,0.50729 -0.17065,0.55147c-0.11861,0.04535 -0.17123,0.23199 -0.17239,0.60933c-0.00116,0.29943 -0.07558,0.74887 -0.1657,0.99917c-0.09012,0.2503 -0.16629,0.84189 -0.1689,1.31429c-0.00291,0.4724 -0.05872,0.91253 -0.12442,0.97823c-0.0657,0.0657 -0.14942,0.85672 -0.18605,1.75791c-0.03779,0.92969 -0.12152,1.70762 -0.19361,1.79832c-0.17588,0.22152 -0.17588,5.37549 0,5.59701c0.07006,0.08838 0.16134,0.87329 0.2035,1.75123c0.04186,0.87532 0.12559,1.64076 0.18605,1.70123c0.06018,0.06018 0.10931,0.51048 0.10931,1.00062c0,0.53461 0.06832,1.0544 0.17094,1.29947c0.09361,0.22472 0.17065,0.65206 0.17065,0.94974c0,0.34216 0.0625,0.59305 0.17065,0.68258c0.11686,0.0971 0.17181,0.36164 0.17413,0.83898c0.00233,0.4317 0.06715,0.78113 0.17065,0.91806c0.09186,0.12152 0.16716,0.43577 0.16716,0.69886c0,0.32007 0.0564,0.49973 0.17065,0.54363c0.10262,0.03925 0.1721,0.21454 0.17443,0.43868c0.00174,0.20553 0.07878,0.47298 0.17065,0.59421c0.09186,0.12152 0.16687,0.4131 0.16687,0.6477c0,0.2346 0.04535,0.45467 0.10088,0.48868c0.05523,0.0343 0.13489,0.29216 0.17704,0.57299c0.04215,0.28112 0.125,0.54072 0.18373,0.57706c0.05901,0.03663 0.10727,0.17501 0.10727,0.30815c0,0.26571 0.41339,1.18464 0.5788,1.28697c0.05727,0.03518 0.10407,0.1939 0.10407,0.35263c0,0.15902 0.08431,0.45031 0.18722,0.6477c0.44711,0.85585 0.49537,0.97823 0.49537,1.25819c0,0.16251 0.05116,0.29536 0.11367,0.29536c0.06279,0 0.11396,0.09622 0.11396,0.21367c0,0.11745 0.07675,0.27734 0.17065,0.35525c0.0939,0.07791 0.17065,0.2314 0.17065,0.34129c0,0.10989 0.07675,0.26338 0.17065,0.34129c0.0939,0.07791 0.17065,0.23489 0.17065,0.34856c0,0.11396 0.0468,0.23576 0.10407,0.27123c0.12355,0.07646 0.57851,0.99306 0.57851,1.16574c0,0.06657 0.07704,0.1846 0.17065,0.26251c0.0939,0.07791 0.17094,0.22646 0.17094,0.32995c0,0.10349 0.15349,0.32327 0.34129,0.48781c0.18751,0.16483 0.34129,0.4067 0.34129,0.53752c0,0.13082 0.05116,0.2378 0.11367,0.2378c0.06279,0 0.11396,0.09012 0.11396,0.2003c0,0.11018 0.12239,0.33228 0.27181,0.49362c0.14971,0.16134 0.34943,0.44246 0.44362,0.62473c0.09419,0.18256 0.27908,0.42909 0.41048,0.54799c0.13169,0.11919 0.23925,0.30205 0.23925,0.4067c0,0.10466 0.1282,0.31019 0.2846,0.45728c0.1564,0.1471 0.28431,0.33199 0.28431,0.41106c0,0.07878 0.22908,0.39013 0.50874,0.6913c0.27995,0.30117 0.51048,0.61049 0.51223,0.68753c0.00494,0.21396 0.77997,0.96632 0.91166,0.88521c0.06803,-0.04215 0.11716,-0.66456 0.11948,-1.51546c0.00291,-1.03696 0.05,-1.52419 0.16658,-1.72855c0.08954,-0.1564 0.16629,-0.59159 0.17036,-0.96719c0.00465,-0.4131 0.07355,-0.7698 0.17472,-0.90352c0.09186,-0.12152 0.16716,-0.43839 0.16716,-0.70439c0,-0.266 0.04971,-0.51426 0.11047,-0.55176c0.06076,-0.0375 0.14419,-0.32327 0.18547,-0.6352c0.04157,-0.31164 0.11977,-0.59421 0.17413,-0.62764c0.05436,-0.03372 0.09884,-0.18082 0.09884,-0.32705c0,-0.14652 0.15349,-0.57589 0.34129,-0.95411c0.1878,-0.3785 0.34129,-0.84625 0.34129,-1.03928c0,-0.20728 0.07006,-0.37821 0.17065,-0.41688c0.0939,-0.03605 0.17065,-0.18809 0.17065,-0.3378c0,-0.14971 0.04768,-0.2721 0.10611,-0.2721c0.05843,0 0.14187,-0.11279 0.18576,-0.25088c0.04361,-0.1378 0.14942,-0.32065 0.23518,-0.40641c0.08547,-0.08547 0.15553,-0.22239 0.15553,-0.30408c0,-0.08169 0.07704,-0.21251 0.17065,-0.29042c0.0939,-0.07791 0.17094,-0.22879 0.17094,-0.33548c0,-0.1064 0.12791,-0.31397 0.28431,-0.46077c0.1564,-0.1471 0.2846,-0.35466 0.2846,-0.46106c0,-0.10669 0.07675,-0.25757 0.17065,-0.33548c0.09361,-0.07791 0.17065,-0.2314 0.17065,-0.34129c0,-0.10989 0.07675,-0.26338 0.17065,-0.34129c0.0939,-0.07791 0.17065,-0.22995 0.17065,-0.3378c0,-0.10785 0.1064,-0.29245 0.23664,-0.41019c0.13024,-0.11803 0.37356,-0.49711 0.54043,-0.84247c0.16716,-0.34565 0.41891,-0.72183 0.5599,-0.83579c0.1407,-0.11396 0.25582,-0.3253 0.25582,-0.46949c0,-0.14448 0.07675,-0.32618 0.17065,-0.40408c0.0939,-0.07791 0.17065,-0.23228 0.17065,-0.34304c0,-0.11076 0.07704,-0.23082 0.17094,-0.26687c0.09361,-0.03605 0.17065,-0.15989 0.17065,-0.2753c0,-0.11541 0.15349,-0.35699 0.34129,-0.53694c0.1878,-0.17995 0.34129,-0.41688 0.34129,-0.52647c0,-0.10989 0.05116,-0.2314 0.11367,-0.27007c0.06279,-0.03866 0.11396,-0.16338 0.11396,-0.27705c0,-0.11396 0.07675,-0.27065 0.17065,-0.34856c0.0939,-0.07791 0.17065,-0.22821 0.17065,-0.33402c0,-0.10582 0.15349,-0.33955 0.34129,-0.5195c0.1878,-0.17995 0.34129,-0.41368 0.34129,-0.51921c0,-0.10582 0.07675,-0.25611 0.17065,-0.33402c0.0939,-0.07791 0.17065,-0.22995 0.17065,-0.3378c0,-0.10785 0.1096,-0.29332 0.24332,-0.41281c0.13373,-0.11919 0.31484,-0.37007 0.40205,-0.55787c0.08721,-0.1878 0.25553,-0.49508 0.37414,-0.68287c0.11861,-0.18751 0.21919,-0.43025 0.22385,-0.53926c0.00465,-0.10902 0.16192,-0.34507 0.34972,-0.52444c0.1878,-0.17937 0.34129,-0.40408 0.34129,-0.49915c0,-0.09506 0.07675,-0.23664 0.17065,-0.31455c0.0939,-0.07791 0.17065,-0.2314 0.17065,-0.34129c0,-0.10989 0.07675,-0.26338 0.17065,-0.34129c0.0939,-0.07791 0.17065,-0.18983 0.17065,-0.24914c0,-0.05901 0.1282,-0.2753 0.2846,-0.48025c0.1564,-0.20524 0.28431,-0.45147 0.28431,-0.5474c0,-0.09593 0.07704,-0.23809 0.17065,-0.316c0.0939,-0.07791 0.17065,-0.23169 0.17065,-0.34129c0,-0.10989 0.07704,-0.26367 0.17094,-0.34158c0.09361,-0.07791 0.17065,-0.20437 0.17065,-0.28141c0,-0.07704 0.15349,-0.30059 0.34129,-0.49711c0.1878,-0.19652 0.34129,-0.41746 0.34129,-0.4913c0,-0.07413 0.06715,-0.21512 0.14942,-0.31397c0.08198,-0.09884 0.24507,-0.41019 0.36193,-0.6916c0.11716,-0.2817 0.3317,-0.64305 0.47647,-0.80294c0.14506,-0.15989 0.26367,-0.37123 0.26367,-0.46949c0,-0.09855 0.07675,-0.24274 0.17065,-0.32065c0.0939,-0.07791 0.17065,-0.19187 0.17065,-0.2535c0,-0.06163 0.15378,-0.30583 0.34158,-0.54304c0.18751,-0.23693 0.34129,-0.48112 0.34129,-0.54275c0,-0.06163 0.07675,-0.17559 0.17065,-0.2535c0.0939,-0.07791 0.17065,-0.23169 0.17065,-0.34158c0,-0.1096 0.07675,-0.26338 0.17065,-0.34129c0.0939,-0.07791 0.17065,-0.23024 0.17065,-0.33868c0,-0.10814 0.12791,-0.3349 0.2846,-0.5038c0.1564,-0.1689 0.28431,-0.37472 0.28431,-0.45787c0,-0.08285 0.07675,-0.21454 0.17065,-0.29245c0.0939,-0.07791 0.17065,-0.23169 0.17065,-0.34129c0,-0.10989 0.07675,-0.26367 0.17065,-0.34129c0.0939,-0.07791 0.17065,-0.21832 0.17065,-0.31193c0,-0.09361 0.15378,-0.34507 0.34158,-0.55903c0.18751,-0.21367 0.34129,-0.45932 0.34129,-0.54595c0,-0.08634 0.03837,-0.17413 0.08518,-0.19507c0.04709,-0.02093 0.2221,-0.32065 0.38897,-0.6663c0.16716,-0.34536 0.41048,-0.72474 0.54072,-0.84247c0.13024,-0.11774 0.23664,-0.32879 0.23664,-0.46891c0,-0.14012 0.07675,-0.28402 0.17065,-0.32007c0.0939,-0.03605 0.17065,-0.16163 0.17065,-0.27908c0,-0.11745 0.10814,-0.31106 0.24013,-0.43025c0.13198,-0.11919 0.341,-0.44711 0.46426,-0.72881c0.12326,-0.28141 0.27152,-0.58868 0.32908,-0.68258c0.05785,-0.0939 0.15059,-0.2753 0.20669,-0.40292c0.05582,-0.12762 0.1878,-0.30379 0.29303,-0.391c0.20321,-0.1689 0.74247,-1.16283 0.74247,-1.36895c0,-0.06744 0.05204,-0.18431 0.1157,-0.25989c0.4349,-0.5163 1.47709,-2.39311 1.47709,-2.65969c0,-0.06396 0.1096,-0.21367 0.24332,-0.33286c0.13373,-0.11919 0.31397,-0.37036 0.40002,-0.55816c0.18111,-0.39478 0.33606,-0.6538 0.69334,-1.15876c0.14099,-0.19914 0.2564,-0.44391 0.2564,-0.54392c0,-0.1 0.07675,-0.21135 0.17065,-0.24739c0.0939,-0.03605 0.17065,-0.15873 0.17065,-0.27268c0,-0.11396 0.07675,-0.28402 0.17065,-0.37792c0.0939,-0.0939 0.17297,-0.26396 0.17559,-0.37792c0.00262,-0.11396 0.15611,-0.33286 0.34129,-0.48636c0.18518,-0.15349 0.33664,-0.36484 0.33664,-0.46979c0,-0.10466 0.07675,-0.25408 0.17065,-0.33199c0.0939,-0.07791 0.17065,-0.23169 0.17065,-0.34129c0,-0.10989 0.07675,-0.26367 0.17065,-0.34158c0.0939,-0.07762 0.17065,-0.23169 0.17065,-0.34216c0,-0.11018 0.12791,-0.28431 0.28431,-0.38693c0.15669,-0.10233 0.2846,-0.27763 0.2846,-0.38955c0,-0.11163 0.075,-0.30234 0.16687,-0.42385c0.09215,-0.12152 0.1689,-0.31222 0.17094,-0.42356c0.00174,-0.11163 0.08024,-0.23228 0.17413,-0.26832c0.0939,-0.03605 0.17065,-0.14274 0.17065,-0.23722c0,-0.09477 0.15378,-0.34711 0.34129,-0.56078c0.1878,-0.21396 0.34158,-0.45758 0.34158,-0.54159c0,-0.08401 0.07675,-0.21658 0.17065,-0.29449c0.09361,-0.07791 0.17065,-0.22792 0.17065,-0.33373c0,-0.10582 0.10843,-0.30873 0.241,-0.45089c0.27588,-0.29623 1.0105,-1.66256 1.0105,-1.87972c0,-0.07965 0.10495,-0.23983 0.23344,-0.35612c0.1282,-0.11599 0.44566,-0.63927 0.70497,-1.16283c0.25931,-0.52328 0.58956,-1.07882 0.73375,-1.23435c0.14419,-0.15582 0.26222,-0.38286 0.26222,-0.50467c0,-0.1221 0.04593,-0.22181 0.10262,-0.22181c0.0564,0 0.15815,-0.1407 0.22588,-0.3128c0.12297,-0.31222 0.21251,-0.46775 0.63374,-1.10266c0.32472,-0.48955 0.63055,-1.11312 0.63055,-1.2858c0,-0.08285 0.07675,-0.17966 0.17065,-0.21571c0.0939,-0.03605 0.1721,-0.1753 0.17384,-0.30931c0.00174,-0.13431 0.15524,-0.39333 0.34129,-0.57589c0.18605,-0.18256 0.33838,-0.4256 0.33838,-0.54043c0,-0.11454 0.05116,-0.20844 0.11367,-0.20844c0.26425,0 -0.03866,-0.5131 -0.59741,-1.01108c-0.1096,-0.09739 -0.19914,-0.25786 -0.19914,-0.35612c0,-0.22326 -3.67398,-3.90916 -3.95044,-3.96352c-0.11134,-0.0218 -0.30495,-0.13373 -0.42996,-0.24827c-0.1253,-0.11483 -0.35554,-0.26338 -0.51223,-0.32995c-0.1564,-0.06657 -0.36106,-0.16658 -0.45496,-0.22239c-0.43112,-0.25611 -1.44308,-0.69567 -1.60122,-0.69567c-0.09681,0 -0.2753,-0.075 -0.39653,-0.16687c-0.12152,-0.09186 -0.35205,-0.1689 -0.51223,-0.17065c-0.16018,-0.00203 -0.39042,-0.07878 -0.51194,-0.17094c-0.12152,-0.09186 -0.44013,-0.16861 -0.70817,-0.17065c-0.26774,-0.00174 -0.67096,-0.08024 -0.89567,-0.17413c-0.54014,-0.22588 -3.01378,-0.22297 -3.50943,0.00407m62.52211,63.76983c0,0.0625 -0.11279,0.11367 -0.25059,0.11367c-0.1378,0 -0.4067,0.1471 -0.59741,0.32676c-0.1907,0.17966 -0.58985,0.41688 -0.88724,0.52735c-0.2971,0.11047 -0.54043,0.24507 -0.54043,0.29914c0,0.05407 -0.12152,0.09826 -0.27036,0.09826c-0.14884,0 -0.33431,0.07675 -0.41222,0.17065c-0.07791,0.0939 -0.28286,0.17065 -0.45525,0.17065c-0.17239,0 -0.37705,0.07704 -0.45496,0.17094c-0.07791,0.09361 -0.30844,0.17065 -0.51194,0.17065c-0.20379,0 -0.43432,0.07675 -0.51223,0.17065c-0.07791,0.0939 -0.28315,0.17065 -0.45583,0.17065c-0.17297,0 -0.46106,0.07646 -0.64043,0.16977c-0.17937,0.09361 -0.46077,0.17036 -0.6259,0.17094c-0.16483,0.00029 -0.44653,0.07704 -0.6256,0.17065c-0.19187,0.1 -0.63287,0.17006 -1.07126,0.17065c-0.4099,0.00029 -0.79712,0.05262 -0.86079,0.11599c-0.07733,0.07762 -11.29984,0.11483 -34.20477,0.11309l-34.08936,-0.00233l-0.23664,0.30059c-0.12995,0.16512 -0.23635,0.36397 -0.23635,0.44188c0,0.07762 -0.07675,0.20495 -0.17065,0.28286c-0.0939,0.07791 -0.17065,0.23169 -0.17065,0.34158c0,0.1096 -0.07675,0.26338 -0.17065,0.34129c-0.0939,0.07791 -0.17065,0.31019 -0.17065,0.5163c0,0.20611 -0.05611,0.39362 -0.12442,0.41629c-0.12239,0.04099 -0.26251,0.55467 -0.4288,1.57041c-0.04593,0.2817 -0.17762,0.65468 -0.29274,0.82852c-0.16599,0.25146 -0.19652,0.45525 -0.14797,0.98957c0.04302,0.47356 0.01483,0.73346 -0.09477,0.87794c-0.20262,0.26745 -0.22733,2.65562 -0.02936,2.8536c0.07326,0.07326 0.14303,0.50583 0.15466,0.96137c0.01308,0.51484 0.09128,0.95701 0.20698,1.16923c0.10233,0.1878 0.18634,0.45351 0.18693,0.59072c0.00029,0.13692 0.04506,0.27675 0.09942,0.31019c0.05436,0.03372 0.13169,0.26716 0.1721,0.51891c0.04012,0.25175 0.12355,0.45758 0.18547,0.45758c0.06192,0 0.1125,0.09622 0.1125,0.21367c0,0.11745 0.07675,0.27734 0.17065,0.35525c0.0939,0.07791 0.17065,0.22821 0.17065,0.33402c0,0.10582 0.15378,0.33955 0.34129,0.51921c0.1878,0.17995 0.34129,0.40903 0.34129,0.50874c0,0.1 0.2817,0.4599 0.6259,0.79974c0.3442,0.34013 0.6259,0.67939 0.6259,0.75439c0,0.20437 0.82503,1.01428 0.99364,0.97562c0.08053,-0.01861 0.43287,0.27588 0.78317,0.65439c0.3503,0.37821 0.73055,0.68782 0.84451,0.68782c0.11425,0 0.31687,0.15349 0.4506,0.34129c0.14652,0.20582 0.34449,0.34129 0.49857,0.34129c0.14041,0 0.40263,0.15378 0.58229,0.34129c0.17995,0.1878 0.40757,0.34158 0.50612,0.34158c0.09826,0 0.23896,0.09593 0.31222,0.21367c0.07355,0.11745 0.38025,0.32588 0.68171,0.4631c0.30146,0.13721 0.62502,0.29739 0.71892,0.35583c0.09361,0.05872 0.24739,0.13547 0.34129,0.17094c0.0939,0.03547 0.24739,0.11221 0.34129,0.17065c0.0939,0.05843 0.24739,0.13518 0.34129,0.17065c0.0939,0.03547 0.24739,0.11221 0.34129,0.17065c0.0939,0.05843 0.24768,0.13576 0.34129,0.17181c0.43868,0.16774 1.65413,0.79567 1.68785,0.87184c0.02093,0.0468 0.12966,0.08518 0.24216,0.08518c0.11221,0 0.26774,0.07704 0.34565,0.17065c0.07791,0.0939 0.23169,0.17065 0.34129,0.17065c0.10989,0 0.26367,0.07704 0.34158,0.17094c0.07791,0.09361 0.22792,0.17065 0.33344,0.17065c0.10553,0 0.29129,0.075 0.41281,0.16687c0.12123,0.09186 0.35525,0.1689 0.51979,0.17065c0.16425,0.00203 0.36251,0.08053 0.44042,0.17443c0.07791,0.0939 0.29274,0.17065 0.47734,0.17065c0.1846,0 0.41222,0.07675 0.50612,0.17065c0.0939,0.0939 0.31774,0.17065 0.49711,0.17065c0.17966,0 0.35815,0.05116 0.39682,0.11396c0.03866,0.0625 0.24042,0.11367 0.44798,0.11367c0.20757,0 0.4413,0.07675 0.51921,0.17065c0.07791,0.0939 0.20873,0.17065 0.291,0.17065c0.08227,0 0.29362,0.0593 0.46949,0.1314c0.92358,0.37908 1.505,0.54421 1.92798,0.54769c0.27472,0.00203 0.52822,0.07442 0.61107,0.17443c0.09913,0.11919 0.36164,0.17065 0.87096,0.17065c0.54333,0 0.74596,0.04332 0.7948,0.17065c0.04855,0.12646 0.24972,0.17065 0.77881,0.17065c0.47822,0 0.75788,0.0532 0.848,0.16192c0.1503,0.18111 0.86806,0.2535 3.78503,0.38083c1.26952,0.05553 1.94746,0.13024 2.04223,0.2253c0.19477,0.19507 5.00542,0.20262 5.36619,0.00843c0.13954,-0.075 0.923,-0.15553 1.78466,-0.18315c0.8448,-0.02704 1.58465,-0.09506 1.64425,-0.15059c0.0593,-0.05582 0.52328,-0.10146 1.03056,-0.10146c0.6352,0 0.99161,-0.05204 1.14365,-0.16716c0.13373,-0.10117 0.48955,-0.16977 0.90352,-0.17413c0.41368,-0.00436 0.76951,-0.07297 0.90352,-0.17443c0.12152,-0.09186 0.46077,-0.16687 0.7541,-0.16687c0.31804,0 0.58636,-0.06425 0.66514,-0.15931c0.07268,-0.0875 0.32211,-0.18576 0.55438,-0.21861c0.84015,-0.11803 1.67768,-0.34042 1.85356,-0.49159c0.09884,-0.08518 0.28489,-0.15466 0.41368,-0.15466c0.12878,0 0.38083,-0.07646 0.5599,-0.17006c0.17937,-0.09332 0.4381,-0.17006 0.57531,-0.17065c0.13721,-0.00029 0.28082,-0.05175 0.31949,-0.11425c0.03866,-0.06279 0.24042,-0.11396 0.44798,-0.11396c0.20757,0 0.4413,-0.07675 0.51921,-0.17065c0.07791,-0.0939 0.2535,-0.17065 0.39042,-0.17065c0.13692,0 0.34827,-0.07529 0.46979,-0.16716c0.12123,-0.09186 0.3317,-0.16861 0.46717,-0.17065c0.13576,-0.00203 0.26542,-0.06018 0.28867,-0.12937c0.02297,-0.06919 0.21512,-0.14623 0.42705,-0.17065c0.21193,-0.02471 0.47037,-0.12181 0.57386,-0.21571c0.10378,-0.09361 0.26803,-0.17065 0.36484,-0.17065c0.09681,0 0.23983,-0.07675 0.31774,-0.17065c0.07791,-0.09361 0.23169,-0.17065 0.34158,-0.17065c0.1096,0 0.26338,-0.07675 0.34129,-0.17065c0.07791,-0.0939 0.2378,-0.17065 0.35525,-0.17065c0.11745,0 0.21367,-0.05116 0.21367,-0.11367c0,-0.06279 0.09855,-0.11396 0.21948,-0.11396c0.12064,0 0.29623,-0.07675 0.38984,-0.17065c0.0939,-0.0939 0.27152,-0.17065 0.3942,-0.17065c0.12297,0 0.25321,-0.07675 0.28926,-0.17065c0.03576,-0.0939 0.16309,-0.17065 0.28257,-0.17065c0.11948,0 0.28082,-0.07675 0.35873,-0.17065c0.07791,-0.0939 0.23169,-0.17065 0.34158,-0.17065c0.1096,0 0.26338,-0.07675 0.34129,-0.17065c0.07791,-0.0939 0.22821,-0.17065 0.33402,-0.17065c0.10553,0 0.33926,-0.15378 0.51921,-0.34129c0.17995,-0.1878 0.41978,-0.34158 0.53345,-0.34158c0.11338,0 0.20611,-0.05 0.20611,-0.11163c0,-0.06134 0.13925,-0.14652 0.3096,-0.18925c0.17006,-0.04273 0.43839,-0.1971 0.59624,-0.34333c0.15756,-0.14623 0.36716,-0.266 0.46542,-0.266c0.09855,0 0.32618,-0.15349 0.50612,-0.34129c0.17995,-0.1878 0.37211,-0.34129 0.42705,-0.34129c0.05523,0 0.26803,-0.12791 0.47298,-0.2846c0.20524,-0.1564 0.41397,-0.28431 0.46426,-0.28431c0.05029,0 0.33751,-0.23053 0.63869,-0.51194c0.30088,-0.2817 0.61456,-0.51223 0.69683,-0.51223c0.08198,0 0.50671,-0.35728 0.94335,-0.79451c0.43693,-0.43693 0.87416,-0.79538 0.97155,-0.79625c0.22094,-0.00262 5.35543,-5.13362 5.51329,-5.5098c0.06367,-0.15146 0.40205,-0.5756 0.75206,-0.94248c0.3503,-0.36716 0.71572,-0.8198 0.81195,-1.00556c0.09622,-0.18605 0.38519,-0.52647 0.64159,-0.75642c0.2567,-0.23024 0.46659,-0.49624 0.46659,-0.59159c0,-0.09506 0.1282,-0.31135 0.2846,-0.47996c0.1564,-0.1689 0.28431,-0.36949 0.28431,-0.44566c0,-0.07617 0.15291,-0.31193 0.33955,-0.52386c0.18693,-0.21193 0.34042,-0.44885 0.34129,-0.52647c0.00116,-0.07762 0.15553,-0.28809 0.34333,-0.46746c0.1878,-0.17937 0.34129,-0.40379 0.34129,-0.49886c0,-0.09506 0.07675,-0.23664 0.17065,-0.31455c0.0939,-0.07791 0.17065,-0.22559 0.17065,-0.32821c0,-0.10233 0.12791,-0.32414 0.2846,-0.49304c0.1564,-0.16861 0.28431,-0.37937 0.28431,-0.46833c0,-0.08896 0.07675,-0.22559 0.17065,-0.3035c0.0939,-0.07791 0.17065,-0.2314 0.17065,-0.34129c0,-0.10989 0.07675,-0.26338 0.17065,-0.34129c0.0939,-0.07791 0.17065,-0.23954 0.17065,-0.35873c0,-0.11948 0.07704,-0.24681 0.17094,-0.28286c0.09361,-0.03605 0.17065,-0.15873 0.17065,-0.27268c0,-0.11396 0.07675,-0.28402 0.17065,-0.37792c0.0939,-0.0939 0.17065,-0.24478 0.17065,-0.33548c0,-0.0907 0.07675,-0.22879 0.17065,-0.3067c0.0939,-0.07791 0.17065,-0.2314 0.17065,-0.34129c0,-0.10989 0.07675,-0.26338 0.17065,-0.34129c0.0939,-0.07791 0.17065,-0.2314 0.17065,-0.34129c0,-0.10989 0.07791,-0.26454 0.17326,-0.34362c0.09535,-0.07907 0.1471,-0.22617 0.11512,-0.32676c-0.03169,-0.10059 0.01831,-0.32966 0.11134,-0.50903c0.09303,-0.17908 0.16919,-0.39042 0.16919,-0.46949c0,-0.07907 0.07675,-0.20757 0.17065,-0.28548c0.0939,-0.07791 0.17065,-0.2378 0.17065,-0.35525c0,-0.11745 -0.07675,-0.21367 -0.17065,-0.21367c-0.0939,0 -0.17065,0.05116 -0.17065,0.11396" /></svg>